# xmcd CD database file
#
# Track frame offsets:
#	151
#	13780
#	27534
#	39156
#	47614
#	59187
#	73908
#	85786
#	100550
#	115376
#	124703
#	139706
#	147293
#	160018
#	170098
#	179388
#	189169
#	204852
#
# Disc length: 3014 seconds
#
# Revision: 0
# Processed by: cddbd v1.5.1PL2 Copyright (c) Steve Scherf et al.
# Submitted via: CDex 1.51
#
DISCID=f80bc412
DTITLE=Frank Sinatra - Vocal Jazz
DYEAR=2001
DGENRE=Jazz
TTITLE0=All Or Nothing At All
TTITLE1=You Make Me Feel So Young
TTITLE2=Someone To Watch Over Me
TTITLE3=It Had To Be You
TTITLE4=Night And Day
TTITLE5=I'll Be Seeing You
TTITLE6=It's Been A Long, Long Time
TTITLE7=With A Song In My Heart
TTITLE8=Begin The Beguine
TTITLE9=Easter Parade
TTITLE10=I'll Never Smile Again
TTITLE11=Somebody Loves Me
TTITLE12=I've Heard That Song Before
TTITLE13=Love Me Or Leave Me
TTITLE14=They Didn't Believe Me
TTITLE15=I've Got My Love To Keep Me Warm
TTITLE16=Blue Skies
TTITLE17=Saturday Night Is The Loneliest Night Of The Week
EXTD=YEAR: 2001
EXTT0=
EXTT1=
EXTT2=
EXTT3=
EXTT4=
EXTT5=
EXTT6=
EXTT7=
EXTT8=
EXTT9=
EXTT10=
EXTT11=
EXTT12=
EXTT13=
EXTT14=
EXTT15=
EXTT16=
EXTT17=
PLAYORDER=
